<svg xmlns="http://www.w3.org/2000/svg" version="1.1" xmlns:xlink="http://www.w3.org/1999/xlink" xmlns:svgjs="http://svgjs.dev/svgjs" width="1500" height="1500" viewBox="0 0 1500 1500"><rect width="1500" height="1500" fill="#000000"></rect><g transform="matrix(0.6666666666666666,0,0,0.6666666666666666,249.39393939393938,438.5856950067477)"><svg viewBox="0 0 396 247" data-background-color="#0a1627" preserveAspectRatio="xMidYMid meet" height="935" width="1500" xmlns="http://www.w3.org/2000/svg" xmlns:xlink="http://www.w3.org/1999/xlink"><g id="tight-bounds" transform="matrix(1,0,0,1,0.2400000000000091,-0.09999999999999432)"><svg viewBox="0 0 395.52 247.2" height="247.2" width="395.52"><g><svg></svg></g><g><svg viewBox="0 0 395.52 247.2" height="247.2" width="395.52"><mask id="a1110fc1-4ab8-4e09-9ab0-13c2c733a7d3"><rect width="640" height="400" fill="white"></rect><g transform="matrix(1,0,0,1,147.19241924633565,37.08)"><svg viewBox="0 0 101.13516150732866 173.04" height="173.04" width="101.13516150732866"><g><svg viewBox="0 0 101.13516150732866 173.04" height="173.04" width="101.13516150732866"><g><svg viewBox="0 0 129.38741344000002 221.37897134850763" height="173.04" width="101.13516150732866"><g><svg viewBox="0 0 129.38741344000002 221.37897134850763" height="221.37897134850763" width="129.38741344000002"><g id="SvgjsG3111"><svg viewBox="0 0 129.38741344000002 221.37897134850763" height="221.37897134850763" width="129.38741344000002" id="SvgjsSvg3110"><g><svg viewBox="0 0 129.38741344000002 171.9706128" height="171.9706128" width="129.38741344000002"><g transform="matrix(1,0,0,1,0,0)"><svg width="129.38741344000002" viewBox="-0.10000000000000009 -39 32.6 43" height="171.9706128" data-palette-color="#fe0039"><path d="M25.7 0L6.7-29.85 6.7 0 3.9 0 3.9-35 6.7-35 25.7-5.15 25.7-35 28.5-35 28.5 0 25.7 0Z" opacity="1" transform="matrix(1,0,0,1,0,0)" fill="black" class="wordmark-text-0" id="SvgjsPath3109" stroke-width="7" stroke="black" stroke-linejoin="round"></path></svg></g></svg></g><g transform="matrix(1,0,0,1,3.5,205.802391456144)"><svg viewBox="0 0 122.38741344000002 15.576579892363636" height="15.576579892363636" width="122.38741344000002"><g transform="matrix(1,0,0,1,0,0)"><svg width="122.38741344000002" viewBox="-1.35 -44.8 388.72 50.349999999999994" height="15.576579892363636" data-palette-color="#c1c1c1"><path d="M34.8-7.4L34.8-7.4Q35.65-6.85 36.1-5.5L36.1-5.5Q29.15 1 22 1L22 1Q17.1 1 13.45-0.78 9.8-2.55 7.4-5.48 5-8.4 3.83-12.13 2.65-15.85 2.65-19.75L2.65-19.75Q2.65-23.7 4-27.48 5.35-31.25 7.95-34.23 10.55-37.2 14.38-39 18.2-40.8 23.1-40.8L23.1-40.8Q29.55-40.8 35.1-37.8L35.1-37.8 35.1-28.2Q34.2-28.05 33.5-28.05L33.5-28.05Q32.75-28.05 32.25-28.2L32.25-28.2 30.65-36.55Q27.6-38.55 22.5-38.55L22.5-38.55Q19.35-38.55 16.82-37.13 14.3-35.7 12.53-33.27 10.75-30.85 9.8-27.58 8.85-24.3 8.85-20.6L8.85-20.6Q8.85-16.65 9.78-13.3 10.7-9.95 12.4-7.5 14.1-5.05 16.53-3.68 18.95-2.3 21.95-2.3L21.95-2.3Q25.55-2.3 28.9-3.7 32.25-5.1 34.8-7.4ZM39.85-13.3L39.85-13.3Q39.85-16.3 40.72-18.93 41.6-21.55 43.25-23.5 44.9-25.45 47.22-26.58 49.55-27.7 52.45-27.7L52.45-27.7Q55.3-27.7 57.65-26.58 60-25.45 61.67-23.5 63.35-21.55 64.25-18.93 65.15-16.3 65.15-13.3L65.15-13.3Q65.15-10.2 64.22-7.6 63.3-5 61.62-3.08 59.95-1.15 57.6-0.08 55.25 1 52.45 1L52.45 1Q49.5 1 47.17-0.05 44.85-1.1 43.22-3 41.6-4.9 40.72-7.53 39.85-10.15 39.85-13.3ZM47.15-22.5L47.15-22.5Q45-19.45 45-13.3L45-13.3Q45-10.25 45.57-7.95 46.15-5.65 47.15-4.13 48.15-2.6 49.5-1.85 50.85-1.1 52.45-1.1L52.45-1.1Q54-1.1 55.4-1.85 56.8-2.6 57.8-4.13 58.8-5.65 59.4-7.95 60-10.25 60-13.3L60-13.3Q60-16.35 59.4-18.68 58.8-21 57.77-22.53 56.75-24.05 55.37-24.83 54-25.6 52.45-25.6L52.45-25.6Q49.35-25.6 47.15-22.5ZM93.6-31.7L93.6-7.1Q93.6-3.75 93.75-2.4L93.75-2.4 97.7-1.9Q97.85-1.1 97.7 0L97.7 0Q94.05 0.15 90.1 0.7L90.1 0.7Q89.75 0.35 89.6-0.25L89.6-0.25 89.35-3.45Q87.6-1.4 85-0.18 82.4 1.05 79.55 1.05L79.55 1.05Q75.2 1.05 72.35-2.58 69.5-6.2 69.5-12.25L69.5-12.25Q69.5-19.25 73.22-23.48 76.95-27.7 82.15-27.7L82.15-27.7Q86.25-27.7 88.85-25.75L88.85-25.75 88.85-32.45Q88.85-35.75 88.7-37.35L88.7-37.35 84.75-37.85Q84.55-38.6 84.75-39.75L84.75-39.75Q88.2-40 93.35-40.8L93.35-40.8Q93.8-40.3 93.85-39.8L93.85-39.8Q93.6-38.5 93.6-31.7L93.6-31.7ZM81.75-25L81.75-25Q78.5-25 76.55-21.58 74.6-18.15 74.6-12.1L74.6-12.1Q74.6-7.15 76.42-4.55 78.25-1.95 81.25-1.95L81.25-1.95Q83.05-1.95 85.2-3.08 87.35-4.2 88.85-6.2L88.85-6.2 88.85-22.2Q86.4-25 81.75-25ZM121.59-14.1L121.59-14.1 105.89-14.1Q105.44-1.35 113.54-1.35L113.54-1.35Q116.99-1.35 120.59-4.4L120.59-4.4Q121.34-3.95 121.74-2.85L121.74-2.85Q118.29 1 112.99 1L112.99 1Q100.79 1 100.79-13.35L100.79-13.35Q100.79-20.15 104.39-23.93 107.99-27.7 112.79-27.7L112.79-27.7Q118.04-27.7 120.34-24.05 122.64-20.4 122.64-14.55L122.64-14.55Q122.14-14.15 121.59-14.1ZM112.69-25.7L112.69-25.7Q110.09-25.7 108.27-23 106.44-20.3 106.04-16.1L106.04-16.1 112.24-16.1Q115.94-16.1 117.54-16.55L117.54-16.55Q117.54-20.65 116.29-23.18 115.04-25.7 112.69-25.7ZM146.59-32.7L146.59-32.7 146.59-25.55 153.64-25.55Q153.74-24.95 153.74-24.65L153.74-24.65Q153.74-24.2 153.64-23.6L153.64-23.6 146.59-22.55 146.59-8.8Q146.59-5.1 147.26-3.58 147.94-2.05 149.39-2.05L149.39-2.05Q150.69-2.05 153.44-3.1L153.44-3.1Q153.94-2.65 154.14-1.4L154.14-1.4Q152.64-0.5 151.86-0.08 151.09 0.35 149.91 0.68 148.74 1 147.44 1L147.44 1Q144.94 1 143.36-0.93 141.79-2.85 141.79-6.8L141.79-6.8 141.79-23.15 138.29-23.6Q138.19-24.1 138.19-24.45L138.19-24.45Q138.19-24.85 138.29-25.55L138.29-25.55Q139.69-25.8 140.71-26.43 141.74-27.05 142.44-28.18 143.14-29.3 143.51-30.18 143.89-31.05 144.44-32.7L144.44-32.7Q144.89-32.85 145.54-32.85L145.54-32.85Q146.14-32.85 146.59-32.7ZM159.99-8.7L159.99-32.45Q159.99-35.75 159.84-37.35L159.84-37.35 155.89-37.85Q155.69-38.6 155.89-39.75L155.89-39.75Q159.24-40 164.44-40.8L164.44-40.8Q164.89-40.3 164.94-39.8L164.94-39.8Q164.69-38.5 164.69-31.7L164.69-31.7 164.69-22.25Q168.39-27.35 173.59-27.35L173.59-27.35Q176.69-27.35 178.89-25.8 181.09-24.25 181.09-20.5L181.09-20.5 181.09-2.55 185.14-1.8Q185.34-1 185.14 0.2L185.14 0.2Q181.99 0.05 178.74 0.05L178.74 0.05Q176.44 0.05 172.24 0.15L172.24 0.15Q171.94-0.8 172.24-1.8L172.24-1.8 176.19-2.35Q176.39-5.1 176.39-8.7L176.39-8.7 176.39-18Q176.39-21.5 175.51-23.05 174.64-24.6 172.34-24.6L172.34-24.6Q170.44-24.6 168.36-23.2 166.29-21.8 164.69-19.15L164.69-19.15 164.69-2.55 168.74-1.8Q168.94-1 168.74 0.2L168.74 0.2Q165.59 0.05 162.34 0.05L162.34 0.05Q160.04 0.05 155.84 0.15L155.84 0.15Q155.54-0.8 155.84-1.8L155.84-1.8 159.79-2.35Q159.99-5.1 159.99-8.7L159.99-8.7ZM208.98-14.1L208.98-14.1 193.28-14.1Q192.83-1.35 200.93-1.35L200.93-1.35Q204.38-1.35 207.98-4.4L207.98-4.4Q208.73-3.95 209.13-2.85L209.13-2.85Q205.68 1 200.38 1L200.38 1Q188.18 1 188.18-13.35L188.18-13.35Q188.18-20.15 191.78-23.93 195.38-27.7 200.18-27.7L200.18-27.7Q205.43-27.7 207.73-24.05 210.03-20.4 210.03-14.55L210.03-14.55Q209.53-14.15 208.98-14.1ZM200.08-25.7L200.08-25.7Q197.48-25.7 195.66-23 193.83-20.3 193.43-16.1L193.43-16.1 199.63-16.1Q203.33-16.1 204.93-16.55L204.93-16.55Q204.93-20.65 203.68-23.18 202.43-25.7 200.08-25.7ZM263.88-7.3L263.88-7.3 263.98-7.3Q264.48-9.35 266.38-15.6L266.38-15.6 273.33-37.6 269.28-38.1 269.28-39.95Q272.03-39.75 274.58-39.75L274.58-39.75Q276.78-39.75 279.98-39.9L279.98-39.9 279.98-38.1 276.68-37.5Q275.88-36.3 274.68-33.05L274.68-33.05 263.33 1.5 262.03 1.5 252.43-26.5 241.93 1.55 240.58 1.5 227.63-37.6 223.58-38.1Q223.38-38.85 223.58-39.95L223.58-39.95Q226.33-39.75 230.73-39.75L230.73-39.75Q234.78-39.75 237.98-39.9L237.98-39.9Q238.28-39 237.98-38.1L237.98-38.1 233.83-37.5 240.43-15.35Q241.68-10.85 242.58-6.9L242.58-6.9 242.68-6.9Q243.68-10.2 245.58-15.35L245.58-15.35 251.08-30.55 248.68-37.6 244.63-38.1Q244.43-38.85 244.63-39.95L244.63-39.95Q247.38-39.75 251.58-39.75L251.58-39.75Q255.38-39.75 258.63-39.9L258.63-39.9Q258.93-39 258.63-38.1L258.63-38.1 254.48-37.5 261.58-15.75Q263.23-10.35 263.88-7.3ZM278.03-13.3L278.03-13.3Q278.03-16.3 278.9-18.93 279.78-21.55 281.43-23.5 283.08-25.45 285.4-26.58 287.73-27.7 290.63-27.7L290.63-27.7Q293.48-27.7 295.83-26.58 298.18-25.45 299.85-23.5 301.53-21.55 302.43-18.93 303.33-16.3 303.33-13.3L303.33-13.3Q303.33-10.2 302.4-7.6 301.48-5 299.8-3.08 298.13-1.15 295.78-0.08 293.43 1 290.63 1L290.63 1Q287.68 1 285.35-0.05 283.03-1.1 281.4-3 279.78-4.9 278.9-7.53 278.03-10.15 278.03-13.3ZM285.33-22.5L285.33-22.5Q283.18-19.45 283.18-13.3L283.18-13.3Q283.18-10.25 283.75-7.95 284.33-5.65 285.33-4.13 286.33-2.6 287.68-1.85 289.03-1.1 290.63-1.1L290.63-1.1Q292.18-1.1 293.58-1.85 294.98-2.6 295.98-4.13 296.98-5.65 297.58-7.95 298.18-10.25 298.18-13.3L298.18-13.3Q298.18-16.35 297.58-18.68 296.98-21 295.95-22.53 294.93-24.05 293.55-24.83 292.18-25.6 290.63-25.6L290.63-25.6Q287.53-25.6 285.33-22.5ZM316.12-26.7L316.12-26.7 316.02-21.55Q317.27-23.85 319.5-25.78 321.72-27.7 323.72-27.7L323.72-27.7Q325.27-27.7 326.47-27.35L326.47-27.35Q326.87-26.7 326.87-25.65L326.87-25.65Q326.87-24 326.17-22.35L326.17-22.35Q324.37-22.85 322.72-22.85L322.72-22.85Q318.62-22.85 315.97-18.85L315.97-18.85 315.87-10.1 315.87-2.55 321.42-1.8Q321.62-1 321.42 0.2L321.42 0.2Q318.27 0.05 314.22 0.05L314.22 0.05Q311.17 0.05 306.97 0.15L306.97 0.15Q306.67-0.8 306.97-1.8L306.97-1.8 310.92-2.35Q311.12-5.1 311.12-8.7L311.12-8.7 311.12-22.4Q311.12-23.4 310.97-24.25L310.97-24.25 307.02-24.75Q306.82-25.5 307.02-26.65L307.02-26.65Q310.47-26.9 315.62-27.7L315.62-27.7Q316.07-27.2 316.12-26.7ZM337.07-31.7L337.07-31.7 337.07-2.55 341.12-1.8Q341.32-1 341.12 0.2L341.12 0.2Q337.97 0.05 334.67 0.05L334.67 0.05Q332.37 0.05 328.17 0.15L328.17 0.15Q327.87-0.8 328.17-1.8L328.17-1.8 332.12-2.35Q332.32-5.1 332.32-8.7L332.32-8.7 332.32-37.35 328.22-37.85Q328.02-38.6 328.22-39.75L328.22-39.75Q331.67-40 336.82-40.8L336.82-40.8Q337.27-40.3 337.32-39.8L337.32-39.8Q337.07-38.5 337.07-31.7ZM368.47-31.7L368.47-7.1Q368.47-3.75 368.62-2.4L368.62-2.4 372.57-1.9Q372.72-1.1 372.57 0L372.57 0Q368.92 0.15 364.97 0.7L364.97 0.7Q364.62 0.35 364.47-0.25L364.47-0.25 364.22-3.45Q362.47-1.4 359.87-0.18 357.27 1.05 354.42 1.05L354.42 1.05Q350.07 1.05 347.22-2.58 344.37-6.2 344.37-12.25L344.37-12.25Q344.37-19.25 348.09-23.48 351.82-27.7 357.02-27.7L357.02-27.7Q361.12-27.7 363.72-25.75L363.72-25.75 363.72-32.45Q363.72-35.75 363.57-37.35L363.57-37.35 359.62-37.85Q359.42-38.6 359.62-39.75L359.62-39.75Q363.07-40 368.22-40.8L368.22-40.8Q368.67-40.3 368.72-39.8L368.72-39.8Q368.47-38.5 368.47-31.7L368.47-31.7ZM356.62-25L356.62-25Q353.37-25 351.42-21.58 349.47-18.15 349.47-12.1L349.47-12.1Q349.47-7.15 351.29-4.55 353.12-1.95 356.12-1.95L356.12-1.95Q357.92-1.95 360.07-3.08 362.22-4.2 363.72-6.2L363.72-6.2 363.72-22.2Q361.27-25 356.62-25ZM379.12-9.45L379.12-9.45 377.27-39.95Q378.67-40.55 380.17-40.55L380.17-40.55Q381.57-40.55 382.62-39.95L382.62-39.95 381.32-9.45Q380.77-9.3 380.27-9.3L380.27-9.3Q379.72-9.3 379.12-9.45ZM380.17-5.55L380.17-5.55Q381.52-5.55 382.44-4.67 383.37-3.8 383.37-2.5L383.37-2.5Q383.37-1.2 382.44-0.28 381.52 0.65 380.22 0.65L380.22 0.65Q378.92 0.65 377.99-0.28 377.07-1.2 377.07-2.5L377.07-2.5Q377.07-3.8 377.97-4.67 378.87-5.55 380.17-5.55Z" opacity="1" transform="matrix(1,0,0,1,0,0)" fill="black" class="slogan-text-1" id="SvgjsPath3108" stroke-width="7" stroke="black" stroke-linejoin="round"></path></svg></g></svg></g></svg></g></svg></g><g></g></svg></g></svg></g></svg></g></mask><g transform="matrix(1,0,0,1,147.19241924633565,37.08)"><svg viewBox="0 0 101.13516150732866 173.04" height="173.04" width="101.13516150732866"><g><svg viewBox="0 0 101.13516150732866 173.04" height="173.04" width="101.13516150732866"><g><svg viewBox="0 0 129.38741344000002 221.37897134850763" height="173.04" width="101.13516150732866"><g><svg viewBox="0 0 129.38741344000002 221.37897134850763" height="221.37897134850763" width="129.38741344000002"><g id="textblocktransform"><svg viewBox="0 0 129.38741344000002 221.37897134850763" height="221.37897134850763" width="129.38741344000002" id="textblock"><g><svg viewBox="0 0 129.38741344000002 171.9706128" height="171.9706128" width="129.38741344000002"><g transform="matrix(1,0,0,1,0,0)"><svg width="129.38741344000002" viewBox="-0.10000000000000009 -39 32.6 43" height="171.9706128" data-palette-color="#fe0039"><path d="M25.7 0L6.7-29.85 6.7 0 3.9 0 3.9-35 6.7-35 25.7-5.15 25.7-35 28.5-35 28.5 0 25.7 0Z" opacity="1" transform="matrix(1,0,0,1,0,0)" fill="#ffffff" class="wordmark-text-0" data-fill-palette-color="primary" id="text-0"></path></svg></g></svg></g><g transform="matrix(1,0,0,1,3.5,205.802391456144)"><svg viewBox="0 0 122.38741344000002 15.576579892363636" height="15.576579892363636" width="122.38741344000002"><g transform="matrix(1,0,0,1,0,0)"><svg width="122.38741344000002" viewBox="-1.35 -44.8 388.72 50.349999999999994" height="15.576579892363636" data-palette-color="#c1c1c1"><path d="M34.8-7.4L34.8-7.4Q35.65-6.85 36.1-5.5L36.1-5.5Q29.15 1 22 1L22 1Q17.1 1 13.45-0.78 9.8-2.55 7.4-5.48 5-8.4 3.83-12.13 2.65-15.85 2.65-19.75L2.65-19.75Q2.65-23.7 4-27.48 5.35-31.25 7.95-34.23 10.55-37.2 14.38-39 18.2-40.8 23.1-40.8L23.1-40.8Q29.55-40.8 35.1-37.8L35.1-37.8 35.1-28.2Q34.2-28.05 33.5-28.05L33.5-28.05Q32.75-28.05 32.25-28.2L32.25-28.2 30.65-36.55Q27.6-38.55 22.5-38.55L22.5-38.55Q19.35-38.55 16.82-37.13 14.3-35.7 12.53-33.27 10.75-30.85 9.8-27.58 8.85-24.3 8.85-20.6L8.85-20.6Q8.85-16.65 9.78-13.3 10.7-9.95 12.4-7.5 14.1-5.05 16.53-3.68 18.95-2.3 21.95-2.3L21.95-2.3Q25.55-2.3 28.9-3.7 32.25-5.1 34.8-7.4ZM39.85-13.3L39.85-13.3Q39.85-16.3 40.72-18.93 41.6-21.55 43.25-23.5 44.9-25.45 47.22-26.58 49.55-27.7 52.45-27.7L52.45-27.7Q55.3-27.7 57.65-26.58 60-25.45 61.67-23.5 63.35-21.55 64.25-18.93 65.15-16.3 65.15-13.3L65.15-13.3Q65.15-10.2 64.22-7.6 63.3-5 61.62-3.08 59.95-1.15 57.6-0.08 55.25 1 52.45 1L52.45 1Q49.5 1 47.17-0.05 44.85-1.1 43.22-3 41.6-4.9 40.72-7.53 39.85-10.15 39.85-13.3ZM47.15-22.5L47.15-22.5Q45-19.45 45-13.3L45-13.3Q45-10.25 45.57-7.95 46.15-5.65 47.15-4.13 48.15-2.6 49.5-1.85 50.85-1.1 52.45-1.1L52.45-1.1Q54-1.1 55.4-1.85 56.8-2.6 57.8-4.13 58.8-5.65 59.4-7.95 60-10.25 60-13.3L60-13.3Q60-16.35 59.4-18.68 58.8-21 57.77-22.53 56.75-24.05 55.37-24.83 54-25.6 52.45-25.6L52.45-25.6Q49.35-25.6 47.15-22.5ZM93.6-31.7L93.6-7.1Q93.6-3.75 93.75-2.4L93.75-2.4 97.7-1.9Q97.85-1.1 97.7 0L97.7 0Q94.05 0.15 90.1 0.7L90.1 0.7Q89.75 0.35 89.6-0.25L89.6-0.25 89.35-3.45Q87.6-1.4 85-0.18 82.4 1.05 79.55 1.05L79.55 1.05Q75.2 1.05 72.35-2.58 69.5-6.2 69.5-12.25L69.5-12.25Q69.5-19.25 73.22-23.48 76.95-27.7 82.15-27.7L82.15-27.7Q86.25-27.7 88.85-25.75L88.85-25.75 88.85-32.45Q88.85-35.75 88.7-37.35L88.7-37.35 84.75-37.85Q84.55-38.6 84.75-39.75L84.75-39.75Q88.2-40 93.35-40.8L93.35-40.8Q93.8-40.3 93.85-39.8L93.85-39.8Q93.6-38.5 93.6-31.7L93.6-31.7ZM81.75-25L81.75-25Q78.5-25 76.55-21.58 74.6-18.15 74.6-12.1L74.6-12.1Q74.6-7.15 76.42-4.55 78.25-1.95 81.25-1.95L81.25-1.95Q83.05-1.95 85.2-3.08 87.35-4.2 88.85-6.2L88.85-6.2 88.85-22.2Q86.4-25 81.75-25ZM121.59-14.1L121.59-14.1 105.89-14.1Q105.44-1.35 113.54-1.35L113.54-1.35Q116.99-1.35 120.59-4.4L120.59-4.4Q121.34-3.95 121.74-2.85L121.74-2.85Q118.29 1 112.99 1L112.99 1Q100.79 1 100.79-13.35L100.79-13.35Q100.79-20.15 104.39-23.93 107.99-27.7 112.79-27.7L112.79-27.7Q118.04-27.7 120.34-24.05 122.64-20.4 122.64-14.55L122.64-14.55Q122.14-14.15 121.59-14.1ZM112.69-25.7L112.69-25.7Q110.09-25.7 108.27-23 106.44-20.3 106.04-16.1L106.04-16.1 112.24-16.1Q115.94-16.1 117.54-16.55L117.54-16.55Q117.54-20.65 116.29-23.18 115.04-25.7 112.69-25.7ZM146.59-32.7L146.59-32.7 146.59-25.55 153.64-25.55Q153.74-24.95 153.74-24.65L153.74-24.65Q153.74-24.2 153.64-23.6L153.64-23.6 146.59-22.55 146.59-8.8Q146.59-5.1 147.26-3.58 147.94-2.05 149.39-2.05L149.39-2.05Q150.69-2.05 153.44-3.1L153.44-3.1Q153.94-2.65 154.14-1.4L154.14-1.4Q152.64-0.5 151.86-0.08 151.09 0.35 149.91 0.68 148.74 1 147.44 1L147.44 1Q144.94 1 143.36-0.93 141.79-2.85 141.79-6.8L141.79-6.8 141.79-23.15 138.29-23.6Q138.19-24.1 138.19-24.45L138.19-24.45Q138.19-24.85 138.29-25.55L138.29-25.55Q139.69-25.8 140.71-26.43 141.74-27.05 142.44-28.18 143.14-29.3 143.51-30.18 143.89-31.05 144.44-32.7L144.44-32.7Q144.89-32.85 145.54-32.85L145.54-32.85Q146.14-32.85 146.59-32.7ZM159.99-8.7L159.99-32.45Q159.99-35.75 159.84-37.35L159.84-37.35 155.89-37.85Q155.69-38.6 155.89-39.75L155.89-39.75Q159.24-40 164.44-40.8L164.44-40.8Q164.89-40.3 164.94-39.8L164.94-39.8Q164.69-38.5 164.69-31.7L164.69-31.7 164.69-22.25Q168.39-27.35 173.59-27.35L173.59-27.35Q176.69-27.35 178.89-25.8 181.09-24.25 181.09-20.5L181.09-20.5 181.09-2.55 185.14-1.8Q185.34-1 185.14 0.2L185.14 0.2Q181.99 0.05 178.74 0.05L178.74 0.05Q176.44 0.05 172.24 0.15L172.24 0.15Q171.94-0.8 172.24-1.8L172.24-1.8 176.19-2.35Q176.39-5.1 176.39-8.7L176.39-8.7 176.39-18Q176.39-21.5 175.51-23.05 174.64-24.6 172.34-24.6L172.34-24.6Q170.44-24.6 168.36-23.2 166.29-21.8 164.69-19.15L164.69-19.15 164.69-2.55 168.74-1.8Q168.94-1 168.74 0.2L168.74 0.2Q165.59 0.05 162.34 0.05L162.34 0.05Q160.04 0.05 155.84 0.15L155.84 0.15Q155.54-0.8 155.84-1.8L155.84-1.8 159.79-2.35Q159.99-5.1 159.99-8.7L159.99-8.7ZM208.98-14.1L208.98-14.1 193.28-14.1Q192.83-1.35 200.93-1.35L200.93-1.35Q204.38-1.35 207.98-4.4L207.98-4.4Q208.73-3.95 209.13-2.85L209.13-2.85Q205.68 1 200.38 1L200.38 1Q188.18 1 188.18-13.35L188.18-13.35Q188.18-20.15 191.78-23.93 195.38-27.7 200.18-27.7L200.18-27.7Q205.43-27.7 207.73-24.05 210.03-20.4 210.03-14.55L210.03-14.55Q209.53-14.15 208.98-14.1ZM200.08-25.7L200.08-25.7Q197.48-25.7 195.66-23 193.83-20.3 193.43-16.1L193.43-16.1 199.63-16.1Q203.33-16.1 204.93-16.55L204.93-16.55Q204.93-20.65 203.68-23.18 202.43-25.7 200.08-25.7ZM263.88-7.3L263.88-7.3 263.98-7.3Q264.48-9.35 266.38-15.6L266.38-15.6 273.33-37.6 269.28-38.1 269.28-39.95Q272.03-39.75 274.58-39.75L274.58-39.75Q276.78-39.75 279.98-39.9L279.98-39.9 279.98-38.1 276.68-37.5Q275.88-36.3 274.68-33.05L274.68-33.05 263.33 1.5 262.03 1.5 252.43-26.5 241.93 1.55 240.58 1.5 227.63-37.6 223.58-38.1Q223.38-38.85 223.58-39.95L223.58-39.95Q226.33-39.75 230.73-39.75L230.73-39.75Q234.78-39.75 237.98-39.9L237.98-39.9Q238.28-39 237.98-38.1L237.98-38.1 233.83-37.5 240.43-15.35Q241.68-10.85 242.58-6.9L242.58-6.9 242.68-6.9Q243.68-10.2 245.58-15.35L245.58-15.35 251.08-30.55 248.68-37.6 244.63-38.1Q244.43-38.85 244.63-39.95L244.63-39.95Q247.38-39.75 251.58-39.75L251.58-39.75Q255.38-39.75 258.63-39.9L258.63-39.9Q258.93-39 258.63-38.1L258.63-38.1 254.48-37.5 261.58-15.75Q263.23-10.35 263.88-7.3ZM278.03-13.3L278.03-13.3Q278.03-16.3 278.9-18.93 279.78-21.55 281.43-23.5 283.08-25.45 285.4-26.58 287.73-27.7 290.63-27.7L290.63-27.7Q293.48-27.7 295.83-26.58 298.18-25.45 299.85-23.5 301.53-21.55 302.43-18.93 303.33-16.3 303.33-13.3L303.33-13.3Q303.33-10.2 302.4-7.6 301.48-5 299.8-3.08 298.13-1.15 295.78-0.08 293.43 1 290.63 1L290.63 1Q287.68 1 285.35-0.05 283.03-1.1 281.4-3 279.78-4.9 278.9-7.53 278.03-10.15 278.03-13.3ZM285.33-22.5L285.33-22.5Q283.18-19.45 283.18-13.3L283.18-13.3Q283.18-10.25 283.75-7.95 284.33-5.65 285.33-4.13 286.33-2.6 287.68-1.85 289.03-1.1 290.63-1.1L290.63-1.1Q292.18-1.1 293.58-1.85 294.98-2.6 295.98-4.13 296.98-5.65 297.58-7.95 298.18-10.25 298.18-13.3L298.18-13.3Q298.18-16.35 297.58-18.68 296.98-21 295.95-22.53 294.93-24.05 293.55-24.83 292.18-25.6 290.63-25.6L290.63-25.6Q287.53-25.6 285.33-22.5ZM316.12-26.7L316.12-26.7 316.02-21.55Q317.27-23.85 319.5-25.78 321.72-27.7 323.72-27.7L323.72-27.7Q325.27-27.7 326.47-27.35L326.47-27.35Q326.87-26.7 326.87-25.65L326.87-25.65Q326.87-24 326.17-22.35L326.17-22.35Q324.37-22.85 322.72-22.85L322.72-22.85Q318.62-22.85 315.97-18.85L315.97-18.85 315.87-10.1 315.87-2.55 321.42-1.8Q321.62-1 321.42 0.2L321.42 0.2Q318.27 0.05 314.22 0.05L314.22 0.05Q311.17 0.05 306.97 0.15L306.97 0.15Q306.67-0.8 306.97-1.8L306.97-1.8 310.92-2.35Q311.12-5.1 311.12-8.7L311.12-8.7 311.12-22.4Q311.12-23.4 310.97-24.25L310.97-24.25 307.02-24.75Q306.82-25.5 307.02-26.65L307.02-26.65Q310.47-26.9 315.62-27.7L315.62-27.7Q316.07-27.2 316.12-26.7ZM337.07-31.7L337.07-31.7 337.07-2.55 341.12-1.8Q341.32-1 341.12 0.2L341.12 0.2Q337.97 0.05 334.67 0.05L334.67 0.05Q332.37 0.05 328.17 0.15L328.17 0.15Q327.87-0.8 328.17-1.8L328.17-1.8 332.12-2.35Q332.32-5.1 332.32-8.7L332.32-8.7 332.32-37.35 328.22-37.85Q328.02-38.6 328.22-39.75L328.22-39.75Q331.67-40 336.82-40.8L336.82-40.8Q337.27-40.3 337.32-39.8L337.32-39.8Q337.07-38.5 337.07-31.7ZM368.47-31.7L368.47-7.1Q368.47-3.75 368.62-2.4L368.62-2.4 372.57-1.9Q372.72-1.1 372.57 0L372.57 0Q368.92 0.15 364.97 0.7L364.97 0.7Q364.62 0.35 364.47-0.25L364.47-0.25 364.22-3.45Q362.47-1.4 359.87-0.18 357.27 1.05 354.42 1.05L354.42 1.05Q350.07 1.05 347.22-2.58 344.37-6.2 344.37-12.25L344.37-12.25Q344.37-19.25 348.09-23.48 351.82-27.7 357.02-27.7L357.02-27.7Q361.12-27.7 363.72-25.75L363.72-25.75 363.72-32.45Q363.72-35.75 363.57-37.35L363.57-37.35 359.62-37.85Q359.42-38.6 359.62-39.75L359.62-39.75Q363.07-40 368.22-40.8L368.22-40.8Q368.67-40.3 368.72-39.8L368.72-39.8Q368.47-38.5 368.47-31.7L368.47-31.7ZM356.62-25L356.62-25Q353.37-25 351.42-21.58 349.47-18.15 349.47-12.1L349.47-12.1Q349.47-7.15 351.29-4.55 353.12-1.95 356.12-1.95L356.12-1.95Q357.92-1.95 360.07-3.08 362.22-4.2 363.72-6.2L363.72-6.2 363.72-22.2Q361.27-25 356.62-25ZM379.12-9.45L379.12-9.45 377.27-39.95Q378.67-40.55 380.17-40.55L380.17-40.55Q381.57-40.55 382.62-39.95L382.62-39.95 381.32-9.45Q380.77-9.3 380.27-9.3L380.27-9.3Q379.72-9.3 379.12-9.45ZM380.17-5.55L380.17-5.55Q381.52-5.55 382.44-4.67 383.37-3.8 383.37-2.5L383.37-2.5Q383.37-1.2 382.44-0.28 381.52 0.65 380.22 0.65L380.22 0.65Q378.92 0.65 377.99-0.28 377.07-1.2 377.07-2.5L377.07-2.5Q377.07-3.8 377.97-4.67 378.87-5.55 380.17-5.55Z" opacity="1" transform="matrix(1,0,0,1,0,0)" fill="#ffffff" class="slogan-text-1" data-fill-palette-color="secondary" id="text-1"></path></svg></g></svg></g></svg></g></svg></g><g></g></svg></g></svg></g></svg></g><g mask="url(#a1110fc1-4ab8-4e09-9ab0-13c2c733a7d3)"><g transform="matrix(4.372444444444445, 0, 0, 4.372444444444445, 0.9999999999999716, 33.93736622969814)"><svg xmlns="http://www.w3.org/2000/svg" xmlns:xlink="http://www.w3.org/1999/xlink" version="1.1" x="0" y="0" viewBox="5 29.49391886595174 90 41.01258914071542" enable-background="new 0 0 100 100" xml:space="preserve" height="41.01258914071542" width="90" class="icon-none" data-fill-palette-color="accent" id="none"><g fill="#c1c1c1" data-fill-palette-color="accent"><path d="M23.943 30.807L5 50.001 23.942 69.193A4.386 4.386 0 0 0 30.2 69.195 4.52 4.52 0 0 0 30.202 62.857L18.193 50.695 14.569 52.984 30.203 37.143A4.5 4.5 0 0 0 31.498 33.975 4.5 4.5 0 0 0 30.201 30.805 4.387 4.387 0 0 0 23.943 30.807" fill="#ffffff" data-fill-palette-color="accent"></path><path d="M76.057 30.808L95 50.001 76.058 69.193A4.386 4.386 0 0 1 69.8 69.195 4.52 4.52 0 0 1 69.798 62.857L81.807 50.696 85.431 52.985 69.796 37.144A4.5 4.5 0 0 1 68.501 33.976 4.5 4.5 0 0 1 69.798 30.806 4.386 4.386 0 0 1 76.057 30.808" fill="#ffffff" data-fill-palette-color="accent"></path><path d="M60.899 32.352A4.5 4.5 0 0 0 58.533 29.876 4.386 4.386 0 0 0 52.708 32.164L38.888 64.226A4.5 4.5 0 0 0 38.84 67.648 4.5 4.5 0 0 0 41.206 70.124 4.386 4.386 0 0 0 47.031 67.836L60.851 35.774A4.5 4.5 0 0 0 60.899 32.352" fill="#ffffff" data-fill-palette-color="accent"></path></g></svg></g></g></svg></g><defs></defs></svg><rect width="395.52" height="247.2" fill="none" stroke="none" visibility="hidden"></rect></g></svg></g></svg>